<svg xmlns="http://www.w3.org/2000/svg" version="1.1" width="600px" height="600px" xlink="http://www.w3.org/1999/xlink" style="overflow:hidden!important;"><g id="svga-group-wrapper" transform="scale(3 3)"><g id="svga-group-backs-single"><path id="SvgjsPath7249" d="M225 225H-25V-25h250V225z" fill="#ffffff" stroke-width="none" opacity="1"></path></g><g id="svga-group-subwrapper" transform="matrix(0.84999948 0 0 0.84999948 14.979303539305008 16.25169637274071) translate(9.999999983634211e-8 2.0000001)"><g id="svga-group-hair-back" transform="matrix(1.00000011 0 0 1.00000011 -0.00001100000000064938 -0.00001100000000064938) rotate(-3.0000001 100 150)"><path id="SvgjsPath7239" d="M100.5,100.5h-1v-1h1V100.5z" fill="#543c32" stroke-width="none" opacity="1"></path></g><g id="svga-group-humanbody-single"><path id="SvgjsPath2893" d="M195.417 199.778c-2.196-4.746-8.195-11.779-14.86-13.722 -8.239-2.403-26.837-5.308-33.733-6.923 -5.528-1.296-16.662-11.294-20.564-14.65 -0.7-0.6-1.273-1.839-1.287-2.76 -0.139-10.864 4.195-39.724 4.195-39.724H100 70.833c0 0 4.334 28.859 4.193 39.724 -0.011 0.921-0.587 2.16-1.285 2.76 -3.902 3.356-15.036 13.354-20.564 14.65 -6.897 1.615-25.495 4.619-33.733 7.022 -6.667 1.942-12.664 8.876-14.86 13.622 -3.708 8.008-4.584 22.5-4.584 35h100 100C200 222.278 199.123 207.786 195.417 199.778z" fill="#f0c7b1" stroke-width="none" opacity="1" stroke="none"></path><path id="SvgjsPath2894" d="M159.156 184.058c24.342 3.542 34.586 8.708 37.794 50.721H200c0-12.5-0.877-26.992-4.583-35 -2.196-4.746-8.195-11.779-14.86-13.722 -8.239-2.403-26.837-5.308-33.733-6.923 -5.528-1.296-18.242-12.069-21.643-16.35 3.36 4.704 12.791 15.605 21.054 18.46C150.188 182.61 153.48 183.232 159.156 184.058zM53.766 181.244c8.263-2.854 17.693-13.756 21.054-18.46 -3.4 4.28-16.114 15.054-21.643 16.35 -6.896 1.615-25.494 4.619-33.733 7.022 -6.665 1.942-12.664 8.876-14.86 13.622 -3.706 8.008-4.583 22.5-4.583 35h3.05c3.188-41.744 13.475-47.183 37.794-50.721C46.52 183.232 49.813 182.61 53.766 181.244z" fill="#ffe4d6" stroke-width="none" opacity="1" stroke="none"></path><path id="SvgjsPath2895" d="M95.646 197.62c0 0-5.074-1.609-7.083-2.379 -10.449-4.009-44.395-6.607-44.395-6.607s35.754 1.419 43.644 2.779c-0.458-4.767-3.017-20.004-3.017-20.004s5.149 16.815 6.409 21.057C91.878 194.734 95.646 197.62 95.646 197.62zM106.445 196.278c-0.089 0.073-0.191 0.168-0.302 0.268C106.256 196.461 106.358 196.372 106.445 196.278zM95.646 197.62c0 0 2.893 2.992 4.347 3.03 1.91 0.051 4.828-2.899 6.151-4.104 -1.265 0.957-4.159 1.391-5.31 1.436C99.504 198.033 95.646 197.62 95.646 197.62zM116.664 190.101c-1.545 0.248-4.386 0.789-4.386 0.789l2.287-14.89c-0.646 3.071-4.474 16.211-8.12 20.278 1.91-1.616 6.158-2.391 8.324-2.704 10.236-1.484 10.232-1.483 41.062-4.94C155.831 188.634 126.76 188.479 116.664 190.101z" fill="#e1ac8f" stroke-width="none" opacity="1" stroke="none"></path><path id="SvgjsPath2896" d="M195.417 199.778c-2.196-4.746-8.195-11.779-14.86-13.722 -8.239-2.403-26.837-5.308-33.733-6.923 -5.528-1.296-16.662-11.294-20.564-14.65 -0.7-0.6-1.273-1.839-1.287-2.76 -0.139-10.864 4.195-39.724 4.195-39.724H100 70.833c0 0 4.334 28.859 4.193 39.724 -0.011 0.921-0.587 2.16-1.285 2.76 -3.902 3.356-15.036 13.354-20.564 14.65 -6.897 1.615-25.495 4.619-33.733 7.022 -6.667 1.942-12.664 8.876-14.86 13.622 -3.708 8.008-4.584 22.5-4.584 35h100 100C200 222.278 199.123 207.786 195.417 199.778z" fill="none" stroke="#c27b55" stroke-width="1.5" opacity="1"></path></g><g id="svga-group-chinshadow-single"><path id="SvgjsPath7153" d="M100.002 170.866c14.133 0 19-4.815 24.219-9.24 -0.068-6.741 1.494-19.936 2.735-29.278 -15.658-2.196-38.256-2.195-53.914 0 1.241 9.342 2.802 22.531 2.733 29.272C80.999 166.047 85.863 170.866 100.002 170.866z" fill="url(#SvgjsLinearGradient7154)" opacity="1"></path></g><g id="svga-group-clothes-single" ><path id="SvgjsPath7245" d="M111.806 235.888c-19.135 0-41.455-0.074-68.233-0.229l-23.679-0.128c-14.298-0.078-15.141-0.094-16.887-0.094l-4.899 0.007c-4.571-41.875 14.41-52.87 43.762-56.708 7.789-1.097 15.449-3.097 21.459-6.972 16.327 22.243 64.811 17.562 73.103-0.629 1.39 0.53 2.539 1.215 3.977 1.734 4.666 3.433 11.072 5.836 17.628 6.199 26.008 1.441 44.419 12.996 44.057 54.64 0.003 0.165 0.004 1.175-0.013 1.49 -12.513 0-17.206 0.121-27.034 0.262 -13.331 0.19-29.923 0.427-63.229 0.427C111.813 235.888 111.81 235.888 111.806 235.888z" fill="#6a3a47" stroke-width="none" opacity="1"></path><path id="SvgjsPath7246" d="M201.055 234.64c-0.41-7.385-4.064-28.058-10.36-37.541 -12.482-18.805-42.26-12.206-49.132-19.693 -4.986 10.159-24.975 16.595-31.594 17.54 19.181-6.36 27.237-10.959 30.42-21.87 6.405 8.33 41.074 1.971 54.717 24.331C199.101 203.954 202.9 224.793 201.055 234.64zM55.811 177.628c1.357-0.315 2.034-1.249 3.381-1.614l-1.426-1.891c-9.049 7.052-42.909 2.645-54.519 24.036 -3.659 6.741-6.127 22.788-4.192 36.439 0.537-8.384 0.799-26.314 7.095-35.798 11.324-17.06 31.974-12.553 47.619-19.775 6.983 8.6 17.888 12.828 28.984 14.577C68.832 189.971 60.85 183.84 55.811 177.628z" fill="#794e5a" stroke-width="none" opacity="1"></path><path id="SvgjsPath7247" d="M135.31 173.244c-5.532 11.514-47.35 24.923-70.93 0.879 -1.466 0.622-5.852 2.112-5.852 2.112 17.176 23.386 67.511 23.534 80.909-0.114C139.378 176.098 136.672 173.936 135.31 173.244z" fill="#5b2936" stroke-width="none" opacity="1"></path><path id="SvgjsPath7248" d="M136.38 171.002c-9.413 18.822-58.397 21.485-73.012 0.632 -5.337 1.578-10.469 4.941-15.636 5.782C16.812 182.021-6.046 184.335-2 235.552c9.94 0-6.611-0.065 45.571 0.215 123.59 0.71 119.562-0.461 158.606-0.461 0.029-0.14 0.015-1.452 0.021-1.596 2.096-56.436-30.852-53.104-53.12-56.995 -3.144-0.718-6.066-2.773-8.635-3.945C139.024 172.121 137.818 171.538 136.38 171.002zM63.014 172.265c12.974 23.392 64.219 18.699 74.113 0.101 1.2 0.504 1.507 0.704 2.898 1.197 -10.248 21.489-60.942 28.337-81.677 1.163C58.494 174.685 61.552 172.813 63.014 172.265zM-0.845 234.778c-2.421-26.431 1.797-48.043 32.78-53.345 10.276-1.896 16.557-1.962 25.384-5.794 16.763 27.405 72.098 23.158 83.598-1.305 1.652 1.409 4.228 3.03 7.405 3.785 18.098 4.299 54.838-0.894 52.898 56.658C147.163 234.075 102.355 232.433-0.845 234.778z" fill="#3c0f1b" stroke-width="none" opacity="1"></path></g><g id="svga-group-head" transform="rotate(-3.0000001 100 150)"><g id="svga-group-ears-left" transform="translate(-1.0000000005838672e-7 0)"><path id="SvgjsPath5257" d="M47.001 83.231c-1.376-2.453-5.638-8.48-9.98-7.003 -2.749 0.935-3.293 3.993-3.735 6.693 -0.588 3.591 0.471 10.694 1.389 13.26 0.881 2.467 3.533 7.23 5.264 9.045 2.13 2.225 4.775 9.324 5.194 10.061 0.66 1.162 1.536 2.911 4.122 2.692 2.853-0.244 4.584-1.85 5.856-2.121C58.253 115.192 50.582 89.616 47.001 83.231z" fill="#f0c7b1" stroke="#c27b55" stroke-width="1.5" opacity="1"></path><path id="SvgjsPath5258" d="M44.197 98.104c-0.132-0.581 0.007-1.56 0.142-2.504 0.124-0.861 0.24-1.675 0.169-2.251 -0.267-2.154-1.773-6.249-2.757-8.467 -1.132-2.554-2.963-5.77-5.262-6.599 -0.95-0.343-1.575 0.067-1.938 0.484 -0.266 0.305-0.325 0.665-0.238 0.707 0.086 0.042 0.285-0.254 0.572-0.535 0.235-0.229 0.579-0.426 1.051-0.385 -0.19 1.073-1.167 6.883-0.744 10.845 0.333 3.115 1.593 5.442 1.79 5.791 0.029 0.367 0.077 0.726 0.148 1.075 0.929 4.547 4.971 9.717 6.378 11.409 0.259 0.313 0.531 0.497 0.598 0.423 0.066-0.076-0.094-0.387-0.353-0.7 -1.388-1.679-5.391-6.831-6.289-11.218 -0.952-4.656 2.318-11.556 3.048-13.017 0.371 0.685 0.687 1.344 0.93 1.893 0.19 0.431 0.402 0.936 0.619 1.479 -0.429 0.762-3.434 6.32-2.338 10.767 0.406 1.641 2.235 3.755 3.447 4.333 0.667 0.32 0.919 0.797 1.209 1.349 0.336 0.64 0.718 1.365 1.828 1.892 0.225 0.108 0.429 0.151 0.61 0.151 0.313 0 0.551-0.135 0.725-0.293 0.018 0.28 0.017 0.64 0.009 0.97 -0.012 0.431 0.042 0.783 0.137 0.791 0.094 0.008 0.196-0.332 0.207-0.76 0.016-0.526 0.013-1.177-0.072-1.488 -0.248-0.917-1.008-1.953-1.813-3.048C45.221 100.116 44.403 99.003 44.197 98.104zM36.95 94.073c-2.177-7.139 0.656-13.3 1.144-14.28 0.85 0.822 1.6 1.919 2.21 2.995C39.86 83.646 37.041 89.271 36.95 94.073zM46.341 104.515c-1.004-0.475-1.339-1.115-1.666-1.733 -0.293-0.559-0.598-1.136-1.369-1.505 -0.168-0.081-0.352-0.203-0.542-0.343 -2.486-6.263 0.272-9.001 0.963-9.562 0.211 0.766 0.369 1.468 0.439 2.031 0.063 0.517-0.052 1.339-0.167 2.134 -0.142 0.985-0.286 2.004-0.137 2.664 0.226 0.982 1.069 2.131 1.884 3.242 0.723 0.986 1.466 2.003 1.721 2.832C47.359 104.439 47.017 104.836 46.341 104.515z" fill="#c27b55" stroke-width="none" opacity="1"></path></g><g id="svga-group-ears-right" transform="translate(1.0000000005838672e-7 0)"><path id="SvgjsPath5259" d="M152.736 83.231c1.377-2.453 5.639-8.48 9.98-7.003 2.75 0.935 3.293 3.993 3.736 6.693 0.588 3.591-0.471 10.694-1.389 13.26 -0.881 2.467-3.533 7.23-5.266 9.045 -2.129 2.225-4.775 9.324-5.193 10.061 -0.658 1.162-1.535 2.911-4.121 2.692 -2.854-0.244-4.584-1.85-5.857-2.121C141.484 115.192 149.156 89.616 152.736 83.231z" fill="#f0c7b1" stroke="#c27b55" stroke-width="1.5" opacity="1"></path><path id="SvgjsPath5260" d="M153.727 101.196c-0.805 1.096-1.564 2.131-1.813 3.048 -0.086 0.311-0.088 0.962-0.072 1.488 0.012 0.428 0.113 0.768 0.207 0.76s0.148-0.36 0.137-0.791c-0.008-0.331-0.008-0.69 0.01-0.97 0.174 0.158 0.412 0.293 0.725 0.293 0.182 0 0.385-0.043 0.609-0.151 1.109-0.526 1.492-1.252 1.828-1.892 0.289-0.552 0.543-1.028 1.209-1.349 1.213-0.578 3.041-2.692 3.447-4.333 1.096-4.447-1.908-10.005-2.338-10.767 0.217-0.544 0.43-1.049 0.619-1.479 0.244-0.549 0.559-1.208 0.93-1.893 0.73 1.46 4 8.361 3.049 13.017 -0.896 4.387-4.9 9.539-6.289 11.218 -0.258 0.313-0.418 0.624-0.352 0.7 0.066 0.074 0.338-0.109 0.598-0.423 1.406-1.692 5.449-6.862 6.379-11.409 0.07-0.35 0.117-0.708 0.146-1.075 0.197-0.349 1.459-2.676 1.791-5.791 0.422-3.961-0.555-9.772-0.744-10.845 0.473-0.042 0.814 0.156 1.051 0.385 0.287 0.281 0.486 0.577 0.572 0.535 0.086-0.042 0.027-0.402-0.238-0.707 -0.363-0.417-0.988-0.827-1.938-0.484 -2.299 0.83-4.131 4.045-5.262 6.599 -0.984 2.218-2.49 6.313-2.758 8.467 -0.072 0.576 0.045 1.39 0.17 2.251 0.135 0.945 0.273 1.924 0.141 2.504C155.336 99.003 154.518 100.116 153.727 101.196zM159.434 82.787c0.611-1.075 1.361-2.173 2.211-2.995 0.488 0.98 3.32 7.141 1.145 14.28C162.697 89.271 159.879 83.646 159.434 82.787zM152.27 104.275c0.254-0.829 0.998-1.846 1.721-2.832 0.816-1.111 1.658-2.26 1.885-3.242 0.148-0.66 0.004-1.679-0.137-2.664 -0.115-0.795-0.23-1.617-0.166-2.134 0.068-0.563 0.227-1.266 0.438-2.031 0.691 0.561 3.449 3.299 0.965 9.562 -0.191 0.14-0.375 0.263-0.543 0.343 -0.771 0.369-1.074 0.946-1.369 1.505 -0.326 0.618-0.662 1.258-1.666 1.733C152.721 104.836 152.379 104.439 152.27 104.275z" fill="#c27b55" stroke-width="none" opacity="1"></path></g><g id="svga-group-faceshape-wrap" transform="matrix(1.00000011 0 0 1.00000011 -0.00001098558993817278 -0.000008868052290722517)"><g id="svga-group-faceshape-single" ><path id="SvgjsPath7150" d="M100.002 0.867C66.384 0.921 39.082 28.71 39.134 62.948c0.008 5.438 0.704 10.709 2.002 15.733h0.001c0.012 0.054 11.542 38.834 14.02 51.571 1.382 7.104 9.796 13.505 17.265 18.729 6.967 4.876 10.529 11.885 27.58 11.885s20.613-7.009 27.58-11.885c7.468-5.225 15.883-11.625 17.265-18.729 2.479-12.737 14.009-51.518 14.02-51.571h0.002c1.298-5.023 1.994-10.295 2.002-15.733C160.923 28.71 133.62 0.921 100.002 0.867z" fill="#f0c7b1" stroke-width="none" opacity="1"></path><path id="SvgjsPath7151" d="M146.772 23.236c7.478 10.415 11.917 23.391 11.898 37.461 -0.009 5.438-0.679 10.709-1.93 15.733h-0.002c-0.011 0.054-11.124 38.833-13.512 51.572 -1.335 7.104-9.471 13.505-16.668 18.729 -6.718 4.875-10.121 11.886-26.557 11.886 -16.434 0-19.842-7.011-26.557-11.886 -7.197-5.225-15.335-11.625-16.665-18.729C54.39 115.264 43.277 76.484 43.266 76.43h0c-1.252-5.023-1.922-10.295-1.931-15.733C41.314 46.631 45.75 33.66 53.224 23.247 44.412 34.011 39.111 47.85 39.134 62.948c0.008 5.438 0.704 10.709 2.002 15.733h0.001c0.012 0.054 11.542 38.834 14.02 51.571 1.382 7.104 9.796 13.505 17.265 18.729 6.967 4.876 10.529 11.885 27.58 11.885s20.613-7.009 27.58-11.885c7.468-5.225 15.883-11.625 17.265-18.729 2.479-12.737 14.009-51.518 14.02-51.571h0.002c1.298-5.023 1.994-10.295 2.002-15.733C160.894 47.846 155.589 34.002 146.772 23.236z" fill="#e8b9a0" stroke-width="none" opacity="1"></path><path id="SvgjsPath7152" d="M100.002 0.867C66.384 0.921 39.082 28.71 39.134 62.948c0.008 5.438 0.704 10.709 2.002 15.733h0.001c0.012 0.054 11.542 38.834 14.02 51.571 1.382 7.104 9.796 13.505 17.265 18.729 6.967 4.876 10.529 11.885 27.58 11.885s20.613-7.009 27.58-11.885c7.468-5.225 15.883-11.625 17.265-18.729 2.479-12.737 14.009-51.518 14.02-51.571h0.002c1.298-5.023 1.994-10.295 2.002-15.733C160.923 28.71 133.62 0.921 100.002 0.867z" fill="none" stroke="#c27b55" stroke-width="1.5" opacity="1"></path></g></g><g id="svga-group-mouth-single" transform="matrix(1.1000005300000002 0 0 1.1000005300000002 -10.100053540000076 -13.762632450842773) translate(0.5000001 1)"><path id="SvgjsPath7252" d="M99.983 144.169c-3.24 0-4.753-2.8-4.753-2.8s4.797 0.78 9.279-0.067C104.509 141.302 102.832 144.169 99.983 144.169z" fill="url(#SvgjsLinearGradient7253)" opacity="1"></path><path id="SvgjsPath7256" d="M99.869 138.7c-8.472 0-12.247-2.608-15.517-6h31.035C112.672 136.172 108.709 138.7 99.869 138.7z" fill="#ffffff" stroke-width="none" opacity="1"></path><path id="SvgjsPath7257" d="M99.869 138.7c-8.472 0-12.247-2.608-15.517-6h31.035C112.672 136.172 108.709 138.7 99.869 138.7z" fill="none" stroke="#c27b55" stroke-width="0.75" opacity="1"></path></g><g id="svga-group-eyes-left" transform="matrix(0.89999969 0 0 0.89999969 7.661055482220831 8.326306967548248) translate(2.0000001000000003 -1.0000000999999996)"><g id="svga-group-eyesback-left"><path id="SvgjsPath7446" d="M76.732 78.383c4.587 0.679 7.931 3.488 10.773 7.94 0.004 0.005 0.013 0.004 0.018 0.008 0.007 0.027 0.021 0.053 0.026 0.08 0.255 1.007-0.816 1.819-2.155 2.438 -4.771 0.609-9.359 1.489-14.194 0.87 -9.681-1.241-9.855-5.509-10.326-6.629 -0.252-1.101-0.325-1.417-0.311-2.473 2.332-1.366 4.043-1.647 5.854-2.005C68.541 78.194 73.268 77.868 76.732 78.383z" fill="url(#SvgjsRadialGradient7447)" opacity="1"></path></g><g id="svga-group-eyesiriswrapper-left" transform="translate(0.25 0)"><g id="svga-group-eyesiriscontrol-left" transform="translate(1.6365788271696354e-16 -9.99999991702083e-8)"><g id="svga-group-eyesiris-left" transform="matrix(1.00000011 0 0 1.00000011 -0.000008140078890050972 -0.000009239922377446419)"><path id="SvgjsPath7434" d="M79.788 85.588c-0.869 3.192-4.162 5.073-7.361 4.196 -3.197-0.876-5.084-4.178-4.214-7.371 0.869-3.195 4.168-5.076 7.365-4.198C78.772 79.09 80.659 82.392 79.788 85.588z" fill="#4d3623" stroke="#1f1105" stroke-width="0.5" opacity="1"></path><path id="SvgjsPath7435" d="M79.643 84.371c-0.441 3.545-3.072 5.392-5.952 5.199 -2.658-0.179-5.034-2.14-5.254-5.525 0.919-0.264 2.14 0.165 3.211 0.001 -0.003 0.039-0.017 0.074-0.018 0.113 -0.084 1.3 0.958 2.433 2.329 2.525 1.374 0.092 2.556-0.892 2.641-2.191 0.009-0.169-0.001-0.336-0.027-0.496C77.527 84.141 78.693 83.999 79.643 84.371z" fill="#5c4633" stroke-width="none" opacity="1"></path><path id="SvgjsPath7436" d="M74.867 81.998c-1.319-0.377-2.667 0.376-3.007 1.691 -0.341 1.308 0.453 2.678 1.771 3.056 1.322 0.379 2.669-0.375 3.011-1.684C76.986 83.745 76.188 82.376 74.867 81.998z" fill="#000000" stroke-width="none" opacity="0.9"></path><path id="SvgjsPath7437" d="M74.867 81.998c-1.319-0.377-2.667 0.376-3.007 1.691 -0.341 1.308 0.453 2.678 1.771 3.056 1.322 0.379 2.669-0.375 3.011-1.684C76.986 83.745 76.188 82.376 74.867 81.998z" fill="none" stroke="#1f1105" stroke-width="0.75" opacity="1"></path><path id="SvgjsPath7438" d="M71.16 87.657c-0.125 0.437-0.806 0.251-0.681-0.188 0.121-0.423 0.446-0.683 0.653-1.055 0.221-0.398 0.831-0.042 0.609 0.356C71.571 87.078 71.257 87.314 71.16 87.657L71.16 87.657zM72.246 86.96c-0.188 0.219-0.434 1.03-0.54 1.295 -0.17 0.422 0.513 0.604 0.681 0.188 0.058-0.145 0.256-0.863 0.359-0.983C73.04 87.116 72.543 86.614 72.246 86.96L72.246 86.96zM73.716 89.048c0.369-0.425 0.332-0.912 0.324-1.441 -0.007-0.455-0.713-0.455-0.706 0 0.004 0.293 0.092 0.701-0.117 0.942C72.92 88.891 73.417 89.392 73.716 89.048L73.716 89.048zM74.437 87.519c0.005 0.438 0.06 0.865 0.189 1.285 0.134 0.434 0.815 0.249 0.681-0.188 -0.112-0.362-0.159-0.719-0.164-1.097C75.138 87.064 74.432 87.063 74.437 87.519L74.437 87.519z" fill="#ffffff" stroke-width="none" opacity="0.5"></path><path id="SvgjsPath7439" d="M78.197 82.971c-0.695 0.417-1.74 0.042-2.333-0.839 -0.592-0.881-0.503-1.934 0.193-2.349 0.694-0.419 1.742-0.043 2.33 0.838C78.979 81.502 78.893 82.554 78.197 82.971z" fill="#ffffff" stroke-width="none" opacity="0.8"></path></g></g></g><g id="svga-group-eyesfront-left"><path id="SvgjsPath7471" d="M55.112 83.583c3.224 11.315 7.475 23.313 17.685 23.669s22.135-7.239 22.29-22.238c0.173-16.767-10.474-23.381-20.684-23.737S50.307 66.714 55.112 83.583zM60.875 83.09c-0.252-1.101-0.325-1.417-0.311-2.473 2.027-1.21 4.04-1.547 5.851-1.905 2.123-0.418 6.853-0.845 10.317-0.329 4.587 0.679 7.931 3.488 10.773 7.94 0.004 0.005 0.013 0.004 0.018 0.008 0.007 0.027 0.021 0.053 0.026 0.08 0.255 1.007-0.816 1.819-2.155 2.438 -4.771 0.609-9.359 1.489-14.194 0.87C61.519 88.478 61.345 84.21 60.875 83.09z" fill="#f0c7b1" stroke-width="none" opacity="1"></path><path id="SvgjsPath7472" d="M74.225 95.171c9.256 1.401 17.847-3.01 19.186-9.859 1.34-6.849-5.072-13.537-14.329-14.94 -9.258-1.399-17.845 3.012-19.185 9.862C58.557 87.082 64.967 93.766 74.225 95.171zM60.563 80.617c2.125-1.141 4.04-1.547 5.851-1.905 2.123-0.418 6.853-0.845 10.317-0.329 4.587 0.679 7.931 3.488 10.773 7.94 0.004 0.005 0.013 0.004 0.018 0.008 0.007 0.027 0.021 0.053 0.026 0.08 0.255 1.007-0.816 1.819-2.155 2.438 -4.771 0.609-9.359 1.489-14.194 0.87 -9.681-1.241-9.855-5.509-10.326-6.629C60.622 81.989 60.55 81.672 60.563 80.617z" fill="url(#SvgjsRadialGradient7473)" opacity="1"></path><path id="SvgjsPath7477" d="M60.875 83.09c-0.252-1.101-0.325-1.417-0.311-2.473 2.092-1.175 4.04-1.547 5.851-1.905 2.123-0.418 6.853-0.845 10.317-0.329 4.587 0.679 7.931 3.488 10.773 7.94 0.004 0.005 0.013 0.004 0.018 0.008 0.007 0.027 0.021 0.053 0.026 0.08 0.255 1.007-0.816 1.819-2.155 2.438 -4.771 0.609-9.359 1.489-14.194 0.87C61.519 88.478 61.345 84.21 60.875 83.09z" fill="url(#SvgjsRadialGradient7478)" opacity="1"></path><path id="SvgjsPath7481" d="M76.327 75.748c3.294 0.539 6.505 2.054 9.48 3.945 0.637 0.404 1.366 0.865 2.521 1.451 -0.828-0.188-1.594-0.617-2.309-1.011 0.736 0.698 1.422 1.529 1.982 2.334 -2.521-3.159-7.297-5.538-11.36-6.349 -3.902-0.779-10.989-0.264-16.251 2.042C65.208 75.449 72.237 75.08 76.327 75.748z" fill="#c27b55" stroke-width="none" opacity="1"></path><path id="SvgjsPath7482" d="M87.508 86.277c-2.847-4.34-6.193-7.082-10.781-7.747 -4.833-0.705-11.271-0.221-15.034 1.843 -0.308 0.169-1.607 1.249-1.401 0.117 0.874-1.167 4.322-2.523 5.993-2.928C85.03 73.019 88.582 87.854 87.508 86.277zM60.646 82.841c-0.716 2.063 0.861 6.654 10.145 7.503 6.595 0.602 15.767-1.75 14.634-1.613 -4.779 0.589-9.375 1.449-14.219 0.839C60.224 88.19 61.468 83.023 60.646 82.841z" fill="#000000" stroke-width="none" opacity="1"></path></g></g><g id="svga-group-eyes-right" transform="matrix(0.89999969 0 0 0.89999969 12.287241678353581 8.326285795912781) translate(-2.0000001000000003 -1.0000000999999996)"><g id="svga-group-eyesback-right"><path id="SvgjsPath7454" d="M122.867 78.383c-4.586 0.679-7.931 3.488-10.773 7.94 -0.004 0.005-0.012 0.004-0.018 0.008 -0.006 0.027-0.02 0.053-0.025 0.08 -0.256 1.007 0.815 1.819 2.154 2.438 4.771 0.609 9.359 1.489 14.194 0.87 9.681-1.241 9.855-5.509 10.325-6.629 0.253-1.101 0.325-1.417 0.312-2.473 -2.331-1.366-4.043-1.647-5.854-2.005C131.059 78.194 126.332 77.868 122.867 78.383z" fill="url(#SvgjsRadialGradient7455)" opacity="1"></path></g><g id="svga-group-eyesiriswrapper-right" transform="translate(-0.25 0)"><g id="svga-group-eyesiriscontrol-right" transform="translate(1.6365788271696354e-16 -9.99999991702083e-8)"><g id="svga-group-eyesiris-right" transform="matrix(1.00000011 0 0 1.00000011 -0.000013860007555877019 -0.000009239922377446419)"><path id="SvgjsPath7440" d="M131.788 85.588c-0.869 3.192-4.162 5.073-7.362 4.196 -3.196-0.876-5.084-4.178-4.214-7.371 0.869-3.195 4.169-5.076 7.365-4.198C130.772 79.09 132.658 82.392 131.788 85.588z" fill="#4d3623" stroke="#1f1105" stroke-width="0.5" opacity="1"></path><path id="SvgjsPath7441" d="M131.643 84.371c-0.44 3.545-3.072 5.392-5.951 5.199 -2.657-0.179-5.034-2.14-5.255-5.525 0.919-0.264 2.141 0.165 3.212 0.001 -0.004 0.039-0.017 0.074-0.019 0.113 -0.085 1.3 0.958 2.433 2.329 2.525 1.374 0.092 2.555-0.892 2.64-2.191 0.009-0.169-0.001-0.336-0.026-0.496C129.527 84.141 130.693 83.999 131.643 84.371z" fill="#5c4633" stroke-width="none" opacity="1"></path><path id="SvgjsPath7442" d="M126.867 81.998c-1.319-0.377-2.666 0.376-3.007 1.691 -0.341 1.308 0.453 2.678 1.771 3.056 1.322 0.379 2.669-0.375 3.011-1.684C128.986 83.745 128.188 82.376 126.867 81.998z" fill="#000000" stroke-width="none" opacity="0.9"></path><path id="SvgjsPath7443" d="M126.867 81.998c-1.319-0.377-2.666 0.376-3.007 1.691 -0.341 1.308 0.453 2.678 1.771 3.056 1.322 0.379 2.669-0.375 3.011-1.684C128.986 83.745 128.188 82.376 126.867 81.998z" fill="none" stroke="#1f1105" stroke-width="0.75" opacity="1"></path><path id="SvgjsPath7444" d="M123.16 87.657c-0.125 0.437-0.806 0.251-0.682-0.188 0.121-0.423 0.447-0.683 0.654-1.055 0.22-0.398 0.83-0.042 0.609 0.356C123.571 87.078 123.257 87.314 123.16 87.657L123.16 87.657zM124.246 86.96c-0.188 0.219-0.434 1.03-0.54 1.295 -0.171 0.422 0.513 0.604 0.681 0.188 0.059-0.145 0.256-0.863 0.358-0.983C125.04 87.116 124.543 86.614 124.246 86.96L124.246 86.96zM125.716 89.048c0.369-0.425 0.332-0.912 0.324-1.441 -0.007-0.455-0.713-0.455-0.706 0 0.004 0.293 0.092 0.701-0.117 0.942C124.92 88.891 125.418 89.392 125.716 89.048L125.716 89.048zM126.438 87.519c0.005 0.438 0.059 0.865 0.188 1.285 0.135 0.434 0.815 0.249 0.681-0.188 -0.112-0.362-0.159-0.719-0.164-1.097C127.138 87.064 126.432 87.063 126.438 87.519L126.438 87.519z" fill="#ffffff" stroke-width="none" opacity="0.5"></path><path id="SvgjsPath7445" d="M130.197 82.971c-0.695 0.417-1.74 0.042-2.333-0.839 -0.592-0.881-0.504-1.934 0.192-2.349 0.695-0.419 1.742-0.043 2.33 0.838C130.979 81.502 130.893 82.554 130.197 82.971z" fill="#ffffff" stroke-width="none" opacity="0.8"></path></g></g></g><g id="svga-group-eyesfront-right"><path id="SvgjsPath7492" d="M125.197 61.277c-10.211 0.356-20.857 6.97-20.685 23.737 0.154 15 12.079 22.595 22.29 22.238 10.21-0.356 16.187-17.323 17.685-23.669C148.517 66.512 135.407 60.921 125.197 61.277zM128.399 89.719c-4.835 0.619-9.423-0.261-14.194-0.87 -1.339-0.618-2.41-1.43-2.154-2.438 0.006-0.027 0.02-0.053 0.025-0.08 0.006-0.004 0.014-0.003 0.018-0.008 2.843-4.452 6.188-7.261 10.773-7.94 3.465-0.516 8.195-0.089 10.318 0.329 1.811 0.357 3.824 0.694 5.851 1.905 0.014 1.055-0.059 1.372-0.312 2.473C138.255 84.21 138.08 88.478 128.399 89.719z" fill="#f0c7b1" stroke-width="none" opacity="1"></path><path id="SvgjsPath7493" d="M139.703 80.234c-1.34-6.85-9.928-11.261-19.186-9.862 -9.257 1.403-15.669 8.091-14.328 14.94 1.339 6.849 9.93 11.26 19.186 9.859C134.633 93.766 141.043 87.082 139.703 80.234zM138.725 83.09c-0.47 1.121-0.645 5.388-10.325 6.629 -4.835 0.619-9.423-0.261-14.194-0.87 -1.339-0.618-2.41-1.43-2.154-2.438 0.006-0.027 0.02-0.053 0.025-0.08 0.006-0.004 0.014-0.003 0.018-0.008 2.843-4.452 6.188-7.261 10.773-7.94 3.465-0.516 8.195-0.089 10.318 0.329 1.811 0.357 3.727 0.764 5.851 1.905C139.05 81.672 138.978 81.989 138.725 83.09z" fill="url(#SvgjsRadialGradient7494)" opacity="1"></path><path id="SvgjsPath7498" d="M138.725 83.09c0.253-1.101 0.325-1.417 0.312-2.473 -2.092-1.175-4.04-1.547-5.851-1.905 -2.123-0.418-6.854-0.845-10.318-0.329 -4.586 0.679-7.931 3.488-10.773 7.94 -0.004 0.005-0.012 0.004-0.018 0.008 -0.006 0.027-0.02 0.053-0.025 0.08 -0.256 1.007 0.815 1.819 2.154 2.438 4.771 0.609 9.359 1.489 14.194 0.87C138.08 88.478 138.255 84.21 138.725 83.09z" fill="url(#SvgjsRadialGradient7499)" opacity="1"></path><path id="SvgjsPath7502" d="M123.273 75.748c-3.295 0.539-6.506 2.054-9.48 3.945 -0.637 0.404-1.367 0.865-2.521 1.451 0.828-0.188 1.594-0.617 2.309-1.011 -0.736 0.698-1.422 1.529-1.982 2.334 2.521-3.159 7.297-5.538 11.359-6.349 3.902-0.779 10.989-0.264 16.252 2.042C134.391 75.449 127.362 75.08 123.273 75.748z" fill="#c27b55" stroke-width="none" opacity="1"></path><path id="SvgjsPath7503" d="M133.314 77.563c1.672 0.405 5.119 1.761 5.994 2.928 0.205 1.132-1.094 0.052-1.402-0.117 -3.764-2.064-10.201-2.548-15.033-1.843 -4.588 0.665-7.936 3.407-10.781 7.747C111.018 87.854 114.57 73.019 133.314 77.563zM128.395 89.57c-4.844 0.61-9.439-0.25-14.219-0.839 -1.134-0.137 8.038 2.215 14.633 1.613 9.284-0.849 10.861-5.44 10.145-7.503C138.131 83.023 139.376 88.19 128.395 89.57z" fill="#000000" stroke-width="none" opacity="1"></path></g></g><g id="svga-group-facehighlight-single" ><path id="SvgjsPath2885" d="M141 113.974c0.035 22.622-18.292 40.994-40.938 41.025 -22.642 0.037-41.028-18.273-41.063-40.9 -0.035-22.62 18.292-41.064 40.937-41.1C122.579 72.964 140.967 91.349 141 113.974z" fill="url(#SvgjsRadialGradient2886)" opacity="1"></path><path id="SvgjsPath2889" d="M137.5 53.999c0 20.711-16.789 37.5-37.499 37.5 -20.711 0-37.501-16.789-37.501-37.5s16.79-37.5 37.501-37.5C120.711 16.499 137.5 33.288 137.5 53.999z" fill="url(#SvgjsRadialGradient2890)" opacity="1"></path></g><g id="svga-group-eyebrows-left" transform="matrix(0.94999968 0 0 0.94999968 3.659570845419921 3.4730261718810027) rotate(1e-7 73.19094848632812 67.46007889311524) translate(3.8570248764199485e-16 -4.0000003)"><path id="SvgjsPath7528" d="M51.602 75.92c18.88-17.059 45.16-8.306 39.295-6.457C88.863 70.104 69.741 63.525 51.602 75.92z" fill="#2a232b" stroke-width="none" opacity="1"></path></g><g id="svga-group-eyebrows-right" transform="matrix(0.94999968 0 0 0.94999968 6.340493154580074 3.4730261718810027) rotate(1e-7 126.80905151367188 67.46007889311524) translate(-3.8570248764199485e-16 -4.0000003)"><path id="SvgjsPath7529" d="M148.398 75.92c-18.88-17.059-45.16-8.306-39.296-6.457C111.137 70.104 130.259 63.525 148.398 75.92z" fill="#2a232b" stroke-width="none" opacity="1"></path></g><g id="svga-group-nose-single" transform="matrix(1.05000032 0 0 1.05000032 -4.924288793688973 -5.2999839471460035) translate(0 -3.0000002)"><path id="SvgjsPath4527" d="M99.084 89.999c0 0-0.887 20.454-0.765 24.946 0.035 1.275 2.489 4.617 2.322 7.054 0 0-4.788-0.349-6.345-0.898 -1.629-0.578-4.151-1.704-3.154-4.85C92.562 111.776 99.084 89.999 99.084 89.999z" fill="#e1ac8f" stroke-width="none" opacity="1" stroke="none"></path><path id="SvgjsPath4528" d="M98.638 119.598c0 0-1.985-0.705-3.239-0.669 -1.142 0.035-1.306-0.726-1.191-1.158 0.116-0.433 0.507-0.701 1.61-0.407C96.921 117.658 98.638 119.598 98.638 119.598zM101.593 119.6c0 0 1.98-0.653 3.239-0.667 1.142-0.014 1.308-0.726 1.191-1.157 -0.116-0.435-0.508-0.705-1.61-0.411C103.31 117.662 101.593 119.6 101.593 119.6z" fill="#c27b55" stroke-width="none" opacity="1" stroke="none"></path></g><g id="svga-group-beardwrap" transform="matrix(1.00000011 0 0 1.00000011 -0.000010999999574323738 -0.000016005550122599743)"><g id="svga-group-beard-single" transform="matrix(0.99999989 0 0 0.99999989 0.000010999999574323738 0.00001600554926994846)"><path id="SvgjsPath6837" d="M99.98 164.89c-11.04-0.87-18.86-4.46-27.91-12.81 -8.87-7.66-15.76-19.16-17.25-25.69 33.99 39.06 57.53 37.59 90.33 0.01C141.03 143.32 118.59 164.88 99.98 164.89z" fill="#954719" stroke-width="none" opacity="1"></path><path id="SvgjsPath6838" d="M144.33 129.43c-5.72 15.85-26.28 35.55-44.35 35.55 -11.82-0.93-19.67-5.18-27.97-12.84 -9.48-8.2-16.15-20.08-17.36-26.12 0.96 1.1 1.9 2.16 2.82 3.17 28.52 44.66 59.27 42.67 87.18-2.16L144.33 129.43z" fill="#863709" stroke-width="none" opacity="1"></path><path id="SvgjsPath6839" d="M87.78 152.64c-8.27-3.53-19.04-10.36-33.13-26.61 1.21 6.04 7.88 17.92 17.36 26.12 8.3 7.66 16.15 11.91 27.97 12.84 19.39 0 41.66-22.7 45.37-38.96C129.64 144.08 109.1 161.87 87.78 152.64zM72.78 151.29c-7.61-6.46-15.46-18.03-17.45-24.03 31.39 39.14 57.67 37.73 89.35 0C139.88 139.03 110.01 185.89 72.78 151.29z" fill="#672600" stroke-width="none" opacity="1"></path></g></g><g id="svga-group-mustache-single" transform="matrix(0.84999948 0 0 0.84999948 15.000051999999997 19.140815126522014) translate(-5.2635580254447884e-17 -1.0000000000000004)"><path id="SvgjsPath6840" d="M121.84 132.49c-14.48-1.75-10.87-2.33-17.37-2.59 -1.03-0.04-1.87-0.74-2.1-1.71 -0.19-0.83-0.61-3.02-0.31-5.48 2.65 0.32 14.42 2.84 17.17 4.68C121.48 128.93 121.54 130.75 121.84 132.49zM80.77 127.39c2.82-1.89 15.09-4.46 17.04-4.66v-0.01c0.05-0.01 0.09-0.01 0.12-0.01 0.3 2.46-0.11 4.65-0.31 5.48 -0.56 2.38-3.11 1.45-5.68 2.01 -12.16 2.53-9.03 1.72-13.79 2.29C78.46 130.75 78.52 128.93 80.77 127.39z" fill="#954719" stroke-width="none" opacity="1"></path><path id="SvgjsPath6841" d="M98.02 122.6c0.27 2.09 0.04 4.17-0.3 5.61 -0.24 1.01-1.12 1.74-2.15 1.78 -1.26 0.05-2.71 0.11-3.6 0.3 -12.24 2.55-8.97 1.7-13.93 2.31 0.01-0.03 0.01-0.07 0.02-0.1 0.48-0.46 0.94-0.7 0.94-0.7 6.58-4.7 17.57-0.57 18.87-9.19C97.93 122.61 97.99 122.6 98.02 122.6zM101.98 122.6c-0.27 2.09-0.04 4.17 0.3 5.61 0.24 1.01 1.12 1.74 2.15 1.78 1.26 0.05 2.71 0.11 3.6 0.3 12.24 2.55 8.97 1.7 13.93 2.31 -0.01-0.03-0.01-0.07-0.02-0.1 -0.48-0.46-0.94-0.7-0.94-0.7 -6.58-4.7-17.57-0.57-18.87-9.19C102.07 122.61 102.01 122.6 101.98 122.6zM83.87 127.6c-1.04 0.04-1.31 0.18-1.96 0.62 -0.05 0.05-1.01 0.92-0.94 0.92 -0.31 0.35-0.93 1.24-1.23 1.64C81.37 129.42 81.74 128.11 83.87 127.6zM87.49 127.91c4.34-1.52 6.03-3.11 9.13-4.25C93.8 125.4 91.42 127.39 87.49 127.91zM84.24 128.54c2.22-1.49 4.02-2.27 5.75-3C88.99 126.17 87.09 127.43 84.24 128.54zM92.24 127.41c1-0.82 2.19-0.93 3.25-1.75C94.4 126.78 93.54 126.72 92.24 127.41zM116.13 127.6c1.04 0.04 1.31 0.18 1.96 0.62 0.05 0.05 1.01 0.92 0.94 0.92 0.31 0.35 0.93 1.24 1.23 1.64C118.63 129.42 118.26 128.11 116.13 127.6zM103.38 123.66c3.09 1.14 4.78 2.73 9.13 4.25C108.58 127.39 106.2 125.4 103.38 123.66zM110.01 125.54c1.73 0.73 3.53 1.51 5.75 3C112.91 127.43 111.01 126.17 110.01 125.54zM104.51 125.66c1.06 0.82 2.25 0.93 3.25 1.75C106.46 126.72 105.6 126.78 104.51 125.66z" fill="#863709" stroke-width="none" opacity="1"></path><path id="SvgjsPath6842" d="M119.29 127.31c-2.94-1.97-15.41-4.51-17-4.66v-0.01c-0.08-0.01-0.25-0.03-0.31-0.03 -0.27 2.09-0.04 4.17 0.3 5.61 0.24 1.01 1.12 1.74 2.15 1.78 1.26 0.05 2.71 0.11 3.6 0.3 12.24 2.55 8.97 1.7 13.93 2.31C121.63 130.81 121.64 128.91 119.29 127.31zM108.17 129.65c-0.91-0.16-2.12-0.13-3.4-0.08 -0.75 0.03-1.42-0.47-1.61-1.19 -0.25-0.92-0.54-2.22-0.83-5.42 2.1 0.42 5.78 1.78 8.1 2.39 8.29 2.01 9.41 2.32 10.99 6.83C121.38 132.16 108.21 129.65 108.17 129.65zM78.04 132.6c4.96-0.6 1.69 0.24 13.93-2.31 0.89-0.19 2.34-0.25 3.6-0.3 1.04-0.04 1.92-0.77 2.15-1.78 0.33-1.44 0.57-3.52 0.3-5.61 -0.06 0-0.23 0.03-0.31 0.03v0.01c-1.59 0.16-14.06 2.7-17 4.66C78.36 128.91 78.37 130.81 78.04 132.6zM78.58 132.18c1.58-4.51 2.7-4.82 10.99-6.83 2.32-0.61 6-1.97 8.1-2.39 -0.29 3.2-0.58 4.5-0.83 5.42 -0.2 0.72-0.86 1.21-1.61 1.19 -1.28-0.04-2.49-0.07-3.4 0.08C91.79 129.65 78.62 132.16 78.58 132.18z" fill="#672600" stroke-width="none" opacity="1"></path></g><g id="svga-group-hair-front" transform="matrix(1.00000011 0 0 1.00000011 -0.000011095526161852831 -0.000004212009407922324)"><path id="SvgjsPath7241" d="M44.974,94.895c-2.423-8.815-3.728-16.533-5.54-24.585l0.083-0.019c-0.686-1.689-3.162-15.06-3.185-15.204c-2.525-17.77,4.993-18.784,4.84-26.198c3.165,1.585,6.242,0.799,9.019-1.365c-2.918-1.499-1.997-1.736-5.872-4.095c2.731-0.472,4.326,0.165,6.646,0.454c-1.983-1.983-5.875-6.028-8.404-5.492l-0.165-0.354c3.661-2.857,8.548,3.091,12.954,1.48C55.483,3.144,79.417-0.256,85.242-2.689c7.755-2.951,15.856-9.441,21.553-10.021c-3.225,3.241-5.2,8.449-5.347,12.358c4.698-4.486,5.03-4.355,12.151-12.264c0,6.364-1.763,7.163-4.051,10.898c6.211-4.07,13.955-15.489,25.881-17.235l0.131,0.37c-4.298,2.532-7.624,6.804-9.898,12.708c2.257-2.726,5.451-5.683,8.986-6.218l0.133,0.369c-2.215,1.325-6.554,5.742-7.547,13.138c4.381-4.893,11.35-8.948,16.134-10.48l0.187,0.346c-4.392,3.573-6.153,9.828-7.146,15.146c3.08-4.58,4.872-5.624,8.747-7.548c-1.247,1.865-1.166,1.539-2.158,3.566c2.396,6.123,10.313,6.361,11.666,17.059c1.63-1.424,2.277-1.781,4.151-3.092l0.282,0.272c-1.408,2.187-2.569,6.06-3.342,8.652c2.78-2.123,7.073-3.687,10.096-4.778l0.211,0.328c-2.551,2.593-5.648,6.546-6.162,10.834c1-0.592,1.048-0.524,2.35-1.466c0,3.081,0.105,2.688,0.127,4.105c1.257-1.125,1.45-1.282,2.276-2.181c-0.183,32.362-1.845,25.912-6.317,48.466c-0.784,3.963-2.171,10.883-3.061,14.207l-6.049,1.039c1.87-22.394-0.093-17.512,1.267-31.604c2.012-20.779-14.804-37.812-37.025-32.237c-4.496,1.128-22.44,1.127-26.934,0c-24.547-6.163-33.391,8.18-36.026,33.278c-1.291,12.318-1.607,8.161,0.267,30.563L44.974,94.895z" fill="#543c32" stroke-width="none" opacity="1"></path><path id="SvgjsPath7242" d="M162.376,34.359c-0.021-1.418-0.127-1.024-0.127-4.105c-1.302,0.941-1.35,0.874-2.35,1.466c0.514-4.288,3.611-8.241,6.162-10.834l-0.211-0.328c-3.022,1.092-7.315,2.655-10.096,4.778c0.772-2.592,1.934-6.465,3.342-8.652l-0.282-0.272c-1.874,1.311-2.521,1.668-4.151,3.092c-1.353-10.697-9.27-10.936-11.666-17.059c0.992-2.027,0.911-1.701,2.158-3.566c-3.875,1.924-5.667,2.968-8.747,7.548c0.993-5.318,2.755-11.573,7.146-15.146l-0.187-0.346c-4.784,1.532-11.753,5.587-16.134,10.48c0.993-7.396,5.332-11.813,7.547-13.138l-0.133-0.369c-3.535,0.535-6.729,3.493-8.986,6.218c2.274-5.904,5.601-10.176,9.898-12.708l-0.131-0.37c-11.926,1.746-19.67,13.165-25.881,17.235c2.288-3.735,4.051-4.535,4.051-10.898c-7.121,7.909-7.453,7.778-12.151,12.264c0.146-3.909,2.122-9.118,5.347-12.358c-5.696,0.58-13.797,7.069-21.553,10.021C79.417-0.256,55.483,3.144,55.35,19.518c-4.406,1.611-9.293-4.337-12.954-1.48l0.165,0.354c2.529-0.537,6.421,3.508,8.404,5.492c-2.319-0.289-3.915-0.926-6.646-0.454c3.875,2.359,2.954,2.596,5.872,4.095c-2.777,2.164-5.854,2.95-9.019,1.365c0.153,7.415-7.366,8.429-4.84,26.198c0.023,0.144,2.499,13.515,3.185,15.204l-0.083,0.019c1.812,8.052,3.117,15.771,5.54,24.585L45,94.899c-0.661-16.442-11.02-39.816-4.941-54.788C40.852,38.156,43.92,33,43.92,33s9.627-1.264,10.08-5c0,0-2-1-3-2c2,1,2-2,4-1c0-2-3-1-3-3c2,0,4,0,6,2c-1-5,0-10,4-13C72,3,85,4,95-4c-1,5-2,10-2,15c6-3,8-9,13-13c1,4-1,9-1,13c3-7,7-14,16-16c-4,4-4,10-4,15c0-4,4-6,5-9c0,4,0,8,0,12c2-6,6-9,11-11c-4,4-3,8-4,13c3-3,7-4,10-7c3,6,1,11,1,17c1-5,6-8,9-12c1,5,1,10,0,15c1-3,3-5,4-8c0,4.86-0.668,9.062-1.98,13.142c1.255-1.452,3.304-2.111,3.98-4.142c0,4.325,0,7.904,0,12.027c0.58-1.192,2.29-1.608,3-3.027c-0.854,3.413-0.254,6.103-0.059,9.302c0.371-1.96,2.258-3.162,2.94-4.967c0.04-0.778,0.081-1.557,0.118-2.335c0.229,0.912,0.135,1.664-0.118,2.335c-0.912,17.771-2.593,35.516-6.256,52.628l0.648-0.111c0.89-3.324,2.276-10.244,3.061-14.207c4.473-22.554,6.135-16.104,6.317-48.466C163.826,33.078,163.633,33.235,162.376,34.359z" fill="#634e45" stroke-width="none" opacity="1"></path><path id="SvgjsPath7243" d="M167.779,19.695c-4.949,0.834-8.406,2.438-11.05,4.25c0.385-1.005,2.193-6.67,4.14-9.05c-2.99,1.333-4.72,2.763-5.72,3.51c0-1.032-0.398-2.224-0.59-2.84c-0.189-0.515-0.348-1.117-1.271-2.62c-5.171-7.296-5.494-4.244-9.729-9.83c0.772-1.811,1.889-3.572,3.29-5.03c-3.908,0.555-5.965,2.075-8.44,4.51c-0.04,0.04-0.07,0.08-0.1,0.12c1.551-6.126,4.59-11.437,10.56-13.43c-7.384-0.268-16.525,5.192-21.12,10.64c1.984-6.381,4.646-9.421,8.601-12.25c-2.846-0.421-5.635,0.742-7.841,2.58c2.541-4.397,6.317-7.899,9.351-9.53c-0.431-0.01-0.94-0.04-1.5,0c-0.777-0.199-5.479,0.566-7.16,1.29c-8.329,3.252-14.389,10.822-16.99,13.28c1.916-3.098,2.01-5.298,1.66-8.52c-0.655,0.563-11.615,11.055-11.75,11.19c0.777-4.309,2.245-6.937,5.02-10.79c-4.947-0.926-17.332,7.217-25.01,9.39c-8.044,2.179-28.004,6.723-27.09,22.7c-4.295,0.819-10.584-6.077-13.88-0.29c2.646-1.57,6.151,2.21,8.59,4.37c-1-0.163-4.343-0.948-5.96,0.13c1.894,0.735,3.55,2.932,5.89,4.1c0.03,0.01,0.06,0.02,0.09,0.04c-2.139,1.128-4.667,2.034-6.99,1.39c-0.35-0.1-0.58-0.16-0.58-0.17c-0.27-0.12-0.56-0.24-0.87-0.38h-0.01l-0.01-0.01c-0.13-0.07-0.26-0.14-0.4-0.21c0.695,5.608-7.817,10.155-6.88,22.02c0.385,7.301,4.949,29.508,10.686,44.566l0.483,0.144c-2.392-8.626-3.777-16.74-5.569-24.701c-0.156,0-3.073-15.044-3.1-15.21c-2.506-17.631,4.994-18.91,4.85-25.84c3.121,1.561,6.532,0.436,9.18-1.73c-3.118-1.551-2.453-1.988-5.68-3.95c2.163-0.374,4.803,0.483,6.62,0.6c-2.346-2.346-6.299-6.51-8.98-5.94c3.568-2.785,8.497,3.271,13.03,1.46c0-16.383,23.723-19.635,29.77-22.16c7.271-2.766,16.283-9.476,20.939-9.95c-2.44,2.458-5.02,7.901-5.02,12.58c4.834-4.638,5.31-4.615,12.16-12.22c0,6.014-2.247,7.088-4.431,10.97c6.414-3.698,14.179-15.828,26.49-17.63c-5.154,3.037-8.435,8.325-10.41,13.97c2.352-3.059,5.8-6.53,9.63-7.11c-2.009,1.202-6.861,5.782-7.72,13.93c4.345-5.114,11.586-9.346,16.47-10.91c-4.605,3.748-6.368,10.371-7.39,16.22c1.687-2.573,3.357-4.897,5.97-6.54c0.011-0.01,0.03-0.02,0.04-0.02c1.029-0.699,0.76-0.509,2.521-1.39c-0.669,1-0.731,0.87-1.79,3.04c2.426,6.377,10.523,6.413,11.729,17.47c1.857-1.647,2.441-1.944,4.42-3.33c-1.542,2.394-2.784,6.768-3.55,9.32c2.905-2.485,8.279-4.33,10.54-5.15c-3,3.05-5.913,7.096-6.26,11.36c0.614-0.413,1.394-0.74,2.39-1.46c0,2.724,0.13,2.36,0.13,4.16c0.526-0.481,1.72-1.51,2.271-2.11c-0.196,31.716-1.88,25.564-6.311,47.91c-1.658,8.376-2.533,12.25-3.081,14.283l0.428-0.087c3.584-10.751,10.737-35.042,10.414-47.616c-0.033-4.7-1.059-14.5-1.11-15.5c-0.021,0.018-2.084,1.97-2.11,1.97c0-0.511-0.21-2.685-0.21-3.87c-0.353,0.271-1.095,0.778-2.09,1.36C161.758,26.981,163.857,24.394,167.779,19.695z" fill="#26130b" stroke-width="none" opacity="1"></path></g><g id="svga-group-glasses-single" ><path id="SvgjsPath7432" d="M100,18.13L100,18.13L100,18.13L100,18.13z" fill="#26120b" stroke-width="none" opacity="1"></path></g></g></g><rect id="SvgjsRect1036" width="200" height="15" x="0" y="185" fill="#ecf0f1" opacity="0.5" style="display:none;"></rect><text id="SvgjsText1037" font-family="&quot;Roboto&quot;, &quot;Helvetica Neue&quot;, Helvetica, Arial, sans-serif" style="font-size:0.84em;font-family:&quot;Roboto&quot;, &quot;Helvetica Neue&quot;, Helvetica, Arial, sans-serif;text-anchor:middle;font-weight:400;display:none;" font-size="0.84em" text-anchor="middle" font-weight="400" fill="#000000" x="100" y="185"><tspan id="SvgjsTspan1038" dy="1.2em" x="100" style="font-size:0.84em;font-family:&quot;Roboto&quot;, &quot;Helvetica Neue&quot;, Helvetica, Arial, sans-serif;text-anchor:middle;font-weight:400;">www.creartuavatar.com</tspan></text></g><defs id="SvgjsDefs1001"><radialGradient id="SvgjsRadialGradient2886" cx="100" cy="114" r="41" gradientUnits="userSpaceOnUse" class="svga-on-canvas-facehighlight-gradient-single-0"><stop id="SvgjsStop2887" stop-opacity="0.5" stop-color="#ffe4d6" offset="0" ></stop><stop id="SvgjsStop2888" stop-opacity="0" stop-color="#f0c7b1" offset="0.9" ></stop></radialGradient><radialGradient id="SvgjsRadialGradient2890" cx="100" cy="54" r="37" gradientUnits="userSpaceOnUse" class="svga-on-canvas-facehighlight-gradient-single-1"><stop id="SvgjsStop2891" stop-opacity="0.5" stop-color="#ffe4d6" offset="0" ></stop><stop id="SvgjsStop2892" stop-opacity="0" stop-color="#f0c7b1" offset="0.9" ></stop></radialGradient><radialGradient id="SvgjsRadialGradient4879" cx="-568.659" cy="-521.042" r="59.751" gradientTransform="matrix(0.096 -0.0248 0.0245 0.0961 141.2814 119.9893)" gradientUnits="userSpaceOnUse" class="svga-on-canvas-eyesiris-gradient-left-1"><stop id="SvgjsStop4880" stop-opacity="1" stop-color="#ffffff" offset="0" ></stop><stop id="SvgjsStop4881" stop-opacity="0" stop-color="#ffffff" offset="1" ></stop></radialGradient><radialGradient id="SvgjsRadialGradient4883" cx="-582.838" cy="-519.099" r="59.745" gradientTransform="matrix(0.0991 8.856319e-004 -0.0011 0.0991 131.1134 135.9855)" gradientUnits="userSpaceOnUse" class="svga-on-canvas-eyesiris-gradient-left-2"><stop id="SvgjsStop4884" stop-opacity="1" stop-color="#ffffff" offset="0" ></stop><stop id="SvgjsStop4885" stop-opacity="0" stop-color="#ffffff" offset="1" ></stop></radialGradient><linearGradient id="SvgjsLinearGradient4889" x1="122.67" y1="88.268" x2="123.606" y2="87.152" gradientTransform="matrix(1 0 0 1 -52 0)" gradientUnits="userSpaceOnUse" class="svga-on-canvas-eyesiris-gradient-left-5"><stop id="SvgjsStop4890" stop-opacity="1" stop-color="#ffffff" offset="0" ></stop><stop id="SvgjsStop4891" stop-opacity="0" stop-color="#ffffff" offset="1" ></stop></linearGradient><linearGradient id="SvgjsLinearGradient4893" x1="127.212" y1="82.296" x2="126.463" y2="83.189" gradientTransform="matrix(1 0 0 1 -52 0)" gradientUnits="userSpaceOnUse" class="svga-on-canvas-eyesiris-gradient-left-6"><stop id="SvgjsStop4894" stop-opacity="1" stop-color="#ffffff" offset="0" ></stop><stop id="SvgjsStop4895" stop-opacity="0" stop-color="#ffffff" offset="1" ></stop></linearGradient><linearGradient id="SvgjsLinearGradient4897" x1="129.636" y1="79.822" x2="127.91" y2="81.879" gradientTransform="matrix(1 0 0 1 -52 0)" gradientUnits="userSpaceOnUse" class="svga-on-canvas-eyesiris-gradient-left-7"><stop id="SvgjsStop4898" stop-opacity="1" stop-color="#ffffff" offset="0" ></stop><stop id="SvgjsStop4899" stop-opacity="0" stop-color="#ffffff" offset="1" ></stop></linearGradient><radialGradient id="SvgjsRadialGradient4902" cx="-568.654" cy="-521.042" r="59.752" gradientTransform="matrix(0.096 -0.0248 0.0245 0.0961 193.2804 119.9894)" gradientUnits="userSpaceOnUse" class="svga-on-canvas-eyesiris-gradient-right-1"><stop id="SvgjsStop4903" stop-opacity="1" stop-color="#ffffff" offset="0" ></stop><stop id="SvgjsStop4904" stop-opacity="0" stop-color="#ffffff" offset="1" ></stop></radialGradient><radialGradient id="SvgjsRadialGradient4906" cx="-582.833" cy="-519.102" r="59.747" gradientTransform="matrix(0.0991 8.856319e-004 -0.0011 0.0991 183.1126 135.9856)" gradientUnits="userSpaceOnUse" class="svga-on-canvas-eyesiris-gradient-right-2"><stop id="SvgjsStop4907" stop-opacity="1" stop-color="#ffffff" offset="0" ></stop><stop id="SvgjsStop4908" stop-opacity="0" stop-color="#ffffff" offset="1" ></stop></radialGradient><linearGradient id="SvgjsLinearGradient4912" x1="122.67" y1="88.268" x2="123.606" y2="87.152" gradientUnits="userSpaceOnUse" class="svga-on-canvas-eyesiris-gradient-right-5"><stop id="SvgjsStop4913" stop-opacity="1" stop-color="#ffffff" offset="0" ></stop><stop id="SvgjsStop4914" stop-opacity="0" stop-color="#ffffff" offset="1" ></stop></linearGradient><linearGradient id="SvgjsLinearGradient4916" x1="127.212" y1="82.296" x2="126.463" y2="83.189" gradientUnits="userSpaceOnUse" class="svga-on-canvas-eyesiris-gradient-right-6"><stop id="SvgjsStop4917" stop-opacity="1" stop-color="#ffffff" offset="0" ></stop><stop id="SvgjsStop4918" stop-opacity="0" stop-color="#ffffff" offset="1" ></stop></linearGradient><linearGradient id="SvgjsLinearGradient4920" x1="129.636" y1="79.822" x2="127.91" y2="81.879" gradientUnits="userSpaceOnUse" class="svga-on-canvas-eyesiris-gradient-right-7"><stop id="SvgjsStop4921" stop-opacity="1" stop-color="#ffffff" offset="0" ></stop><stop id="SvgjsStop4922" stop-opacity="0" stop-color="#ffffff" offset="1" ></stop></linearGradient><linearGradient id="SvgjsLinearGradient6660" x1="128" y1="106" x2="128" y2="69" gradientUnits="userSpaceOnUse" class="svga-on-canvas-glasses-gradient-single-1"><stop id="SvgjsStop6661" stop-opacity="0.95" stop-color="#26120b" offset="0" ></stop><stop id="SvgjsStop6662" stop-opacity="1" stop-color="#26120b" offset="1" ></stop></linearGradient><linearGradient id="SvgjsLinearGradient6664" x1="72" y1="106" x2="72" y2="69" gradientUnits="userSpaceOnUse" class="svga-on-canvas-glasses-gradient-single-2"><stop id="SvgjsStop6665" stop-opacity="0.95" stop-color="#26120b" offset="0" ></stop><stop id="SvgjsStop6666" stop-opacity="1" stop-color="#26120b" offset="1" ></stop></linearGradient><linearGradient id="SvgjsLinearGradient7154" x1="100" y1="171" x2="100" y2="131" gradientUnits="userSpaceOnUse" class="svga-on-canvas-chinshadow-gradient-single-0"><stop id="SvgjsStop7155" stop-opacity="0.8" stop-color="#e1ac8f" offset="0" ></stop><stop id="SvgjsStop7156" stop-opacity="1" stop-color="#c27b55" offset="0.7" ></stop></linearGradient><linearGradient id="SvgjsLinearGradient7253" x1="100" y1="144" x2="100" y2="141" gradientUnits="userSpaceOnUse" class="svga-on-canvas-mouth-gradient-single-0"><stop id="SvgjsStop7254" stop-opacity="1" stop-color="#e8b9a0" offset="0.1" ></stop><stop id="SvgjsStop7255" stop-opacity="1" stop-color="#e1ac8f" offset="1" ></stop></linearGradient><radialGradient id="SvgjsRadialGradient7447" cx="125.903" cy="85.096" r="13.25" gradientTransform="matrix(-1.0996 0.0423 0.0635 0.9207 206.5488 0.5932)" gradientUnits="userSpaceOnUse" class="svga-on-canvas-eyesback-gradient-left-0"><stop id="SvgjsStop7448" stop-opacity="1" stop-color="#ffffff" offset="0" ></stop><stop id="SvgjsStop7449" stop-opacity="1" stop-color="#fdfefe" offset="0.544" ></stop><stop id="SvgjsStop7450" stop-opacity="1" stop-color="#f6f8f9" offset="0.74" ></stop><stop id="SvgjsStop7451" stop-opacity="1" stop-color="#eaeff2" offset="0.879" ></stop><stop id="SvgjsStop7452" stop-opacity="1" stop-color="#d9e3e8" offset="0.992" ></stop><stop id="SvgjsStop7453" stop-opacity="1" stop-color="#d8e2e7" offset="1" ></stop></radialGradient><radialGradient id="SvgjsRadialGradient7455" cx="125.541" cy="85.113" r="13.249" gradientTransform="matrix(1.0996 0.0423 -0.0635 0.9207 -6.5488 0.5932)" gradientUnits="userSpaceOnUse" class="svga-on-canvas-eyesback-gradient-right-0"><stop id="SvgjsStop7456" stop-opacity="1" stop-color="#ffffff" offset="0" ></stop><stop id="SvgjsStop7457" stop-opacity="1" stop-color="#fdfefe" offset="0.544" ></stop><stop id="SvgjsStop7458" stop-opacity="1" stop-color="#f6f8f9" offset="0.74" ></stop><stop id="SvgjsStop7459" stop-opacity="1" stop-color="#eaeff2" offset="0.879" ></stop><stop id="SvgjsStop7460" stop-opacity="1" stop-color="#d9e3e8" offset="0.992" ></stop><stop id="SvgjsStop7461" stop-opacity="1" stop-color="#d8e2e7" offset="1" ></stop></radialGradient><radialGradient id="SvgjsRadialGradient7463" cx="125.903" cy="85.096" r="13.25" gradientTransform="matrix(-1.0996 0.0423 0.0635 0.9207 206.5488 0.5932)" gradientUnits="userSpaceOnUse" class="svga-on-canvas-eyesfront-gradient-left-0"><stop id="SvgjsStop7464" stop-opacity="1" stop-color="#ffffff" offset="0" ></stop><stop id="SvgjsStop7465" stop-opacity="1" stop-color="#fdfefe" offset="0.544" ></stop><stop id="SvgjsStop7466" stop-opacity="1" stop-color="#f6f8f9" offset="0.74" ></stop><stop id="SvgjsStop7467" stop-opacity="1" stop-color="#eaeff2" offset="0.879" ></stop><stop id="SvgjsStop7468" stop-opacity="1" stop-color="#d9e3e8" offset="0.992" ></stop><stop id="SvgjsStop7469" stop-opacity="1" stop-color="#d8e2e7" offset="1" ></stop></radialGradient><radialGradient id="SvgjsRadialGradient7473" cx="123.371" cy="81.442" fx="136.805" fy="80.36" r="17.038" gradientTransform="matrix(0.9884 0.1367 0.1336 -0.7354 -56.0677 125.3)" gradientUnits="userSpaceOnUse" class="svga-on-canvas-eyesfront-gradient-left-3"><stop id="SvgjsStop7474" stop-opacity="1" stop-color="#e1ac8f" offset="0" ></stop><stop id="SvgjsStop7475" stop-opacity="0.3" stop-color="#e1ac8f" offset="0.7" ></stop><stop id="SvgjsStop7476" stop-opacity="0" stop-color="#f0c7b1" offset="1" ></stop></radialGradient><radialGradient id="SvgjsRadialGradient7478" cx="78.965" cy="81.143" r="26.237" gradientTransform="matrix(0.7183 -0.06 0.0803 0.6143 8.7915 49.2595)" gradientUnits="userSpaceOnUse" class="svga-on-canvas-eyesfront-gradient-left-4"><stop id="SvgjsStop7479" stop-opacity="0" stop-color="#000000" offset="0.95" ></stop><stop id="SvgjsStop7480" stop-opacity="0.2" stop-color="#000000" offset="1" ></stop></radialGradient><radialGradient id="SvgjsRadialGradient7484" cx="125.541" cy="85.113" r="13.249" gradientTransform="matrix(1.0996 0.0423 -0.0635 0.9207 -6.5488 0.5932)" gradientUnits="userSpaceOnUse" class="svga-on-canvas-eyesfront-gradient-right-0"><stop id="SvgjsStop7485" stop-opacity="1" stop-color="#ffffff" offset="0" ></stop><stop id="SvgjsStop7486" stop-opacity="1" stop-color="#fdfefe" offset="0.544" ></stop><stop id="SvgjsStop7487" stop-opacity="1" stop-color="#f6f8f9" offset="0.74" ></stop><stop id="SvgjsStop7488" stop-opacity="1" stop-color="#eaeff2" offset="0.879" ></stop><stop id="SvgjsStop7489" stop-opacity="1" stop-color="#d9e3e8" offset="0.992" ></stop><stop id="SvgjsStop7490" stop-opacity="1" stop-color="#d8e2e7" offset="1" ></stop></radialGradient><radialGradient id="SvgjsRadialGradient7494" cx="122.972" cy="81.425" fx="136.406" fy="80.344" r="17.037" gradientTransform="matrix(-0.9884 0.1367 -0.1336 -0.7354 255.271 125.3424)" gradientUnits="userSpaceOnUse" class="svga-on-canvas-eyesfront-gradient-right-3"><stop id="SvgjsStop7495" stop-opacity="1" stop-color="#e1ac8f" offset="0" ></stop><stop id="SvgjsStop7496" stop-opacity="0.3" stop-color="#e1ac8f" offset="0.7" ></stop><stop id="SvgjsStop7497" stop-opacity="0" stop-color="#f0c7b1" offset="1" ></stop></radialGradient><radialGradient id="SvgjsRadialGradient7499" cx="79.515" cy="81.186" r="26.237" gradientTransform="matrix(-0.7183 -0.06 -0.0803 0.6143 191.2076 49.2665)" gradientUnits="userSpaceOnUse" class="svga-on-canvas-eyesfront-gradient-right-4"><stop id="SvgjsStop7500" stop-opacity="0" stop-color="#000000" offset="0.95" ></stop><stop id="SvgjsStop7501" stop-opacity="0.2" stop-color="#000000" offset="1" ></stop></radialGradient></defs></svg>